# Blender v2.82 (sub 7) OBJ File: 'arrow.blend'
# www.blender.org
mtllib arrow.mtl
o Cube
v -0.210384 0.407472 -1.314419
v -0.210384 0.363418 -1.314419
v -0.309693 0.120671 -0.093282
v -0.309693 0.093284 -0.093282
v -0.588310 -0.175028 -3.030405
v -0.587190 -0.180934 -3.030129
v -0.254719 -0.092344 -3.096584
v -0.254711 -0.118237 -3.096835
v -0.640392 -0.225859 -3.111100
v -0.641692 -0.231575 -3.112350
v -0.359483 -0.252054 -3.315473
v -0.360512 -0.263243 -3.318636
v -0.687317 -0.196294 -3.016427
v -0.688834 -0.202012 -3.015891
v -0.723065 -0.213875 -3.042225
v -0.724438 -0.225443 -3.046442
v -0.102396 0.363418 -1.307214
v -0.232814 0.119921 0.026766
v -0.106263 -0.096988 -3.111140
v -0.147652 -0.312284 -3.477514
v -0.232814 0.092533 0.026766
v -0.102396 0.407472 -1.307214
v -0.106263 -0.024508 -3.111140
v -0.147652 -0.299218 -3.477514
v -0.216732 0.226121 -2.191339
v -0.216732 0.188285 -2.191339
v -0.104330 0.226121 -2.209177
v -0.104330 0.188285 -2.209177
v -0.260039 0.371662 -0.703850
v -0.260039 0.407383 -0.703850
v -0.167605 0.371287 -0.640224
v -0.167605 0.407008 -0.640224
v 0.210384 0.407472 -1.314419
v 0.210384 0.363418 -1.314419
v 0.309693 0.120671 -0.093282
v 0.309693 0.093284 -0.093282
v 0.588310 -0.175028 -3.030405
v 0.587190 -0.180934 -3.030129
v 0.254719 -0.092344 -3.096584
v 0.254711 -0.118237 -3.096835
v 0.640392 -0.225859 -3.111100
v 0.641692 -0.231575 -3.112350
v 0.359483 -0.252054 -3.315473
v 0.360512 -0.263243 -3.318636
v 0.687317 -0.196294 -3.016427
v 0.688834 -0.202012 -3.015891
v 0.723065 -0.213875 -3.042225
v 0.724438 -0.225443 -3.046442
v 0.000000 0.363418 -1.300091
v 0.000000 0.122198 0.055835
v 0.000000 0.094811 0.055835
v 0.000000 0.407472 -1.300091
v 0.000000 -0.069256 -3.116113
v 0.000000 -0.019680 -3.116113
v 0.000000 -0.344629 -3.602659
v 0.000000 -0.338060 -3.602659
v 0.102396 0.363418 -1.307214
v 0.232814 0.119921 0.026766
v 0.106263 -0.096988 -3.111140
v 0.147652 -0.312284 -3.477514
v 0.232814 0.092533 0.026766
v 0.102396 0.407472 -1.307214
v 0.106263 -0.024508 -3.111140
v 0.147652 -0.299218 -3.477514
v 0.216732 0.226121 -2.191339
v 0.216732 0.188285 -2.191339
v 0.000000 0.187484 -2.208102
v 0.000000 0.225321 -2.208102
v 0.104330 0.226121 -2.209177
v 0.104330 0.188285 -2.209177
v 0.260039 0.371662 -0.703850
v 0.260039 0.407383 -0.703850
v 0.000000 0.372426 -0.622128
v 0.000000 0.408147 -0.622128
v 0.167605 0.371287 -0.640224
v 0.167605 0.407008 -0.640224
vt 0.812500 0.625000
vt 0.875000 0.625000
vt 0.875000 0.750000
vt 0.812500 0.750000
vt 0.375000 0.937500
vt 0.625000 0.937500
vt 0.625000 1.000000
vt 0.375000 1.000000
vt 0.375000 0.125000
vt 0.625000 0.125000
vt 0.625000 0.250000
vt 0.375000 0.250000
vt 0.125000 0.500000
vt 0.125000 0.500000
vt 0.125000 0.500000
vt 0.125000 0.500000
vt 0.375000 0.250000
vt 0.625000 0.250000
vt 0.625000 0.250000
vt 0.375000 0.250000
vt 0.187500 0.500000
vt 0.125000 0.500000
vt 0.187500 0.500000
vt 0.875000 0.500000
vt 0.875000 0.500000
vt 0.875000 0.500000
vt 0.875000 0.500000
vt 0.625000 0.250000
vt 0.375000 0.250000
vt 0.375000 0.250000
vt 0.625000 0.250000
vt 0.375000 0.250000
vt 0.625000 0.250000
vt 0.187500 0.500000
vt 0.375000 0.250000
vt 0.625000 0.250000
vt 0.125000 0.500000
vt 0.125000 0.500000
vt 0.375000 0.250000
vt 0.625000 0.250000
vt 0.875000 0.500000
vt 0.875000 0.500000
vt 0.375000 0.312500
vt 0.625000 0.312500
vt 0.625000 0.375000
vt 0.375000 0.375000
vt 0.812500 0.500000
vt 0.750000 0.500000
vt 0.750000 0.500000
vt 0.812500 0.500000
vt 0.812500 0.500000
vt 0.750000 0.500000
vt 0.187500 0.625000
vt 0.250000 0.625000
vt 0.250000 0.750000
vt 0.187500 0.750000
vt 0.125000 0.625000
vt 0.125000 0.750000
vt 0.875000 0.500000
vt 0.250000 0.500000
vt 0.250000 0.500000
vt 0.250000 0.500000
vt 0.375000 0.875000
vt 0.625000 0.875000
vt 0.750000 0.625000
vt 0.750000 0.750000
vt 0.250000 0.500000
vt 0.187500 0.500000
vt 0.875000 0.500000
vt 0.812500 0.500000
vt 0.750000 0.500000
vt 0.125000 0.500000
vt 0.375000 0.000000
vt 0.625000 0.000000
vt 0.812500 0.625000
vt 0.812500 0.750000
vt 0.875000 0.750000
vt 0.875000 0.625000
vt 0.375000 0.937500
vt 0.375000 1.000000
vt 0.625000 1.000000
vt 0.625000 0.937500
vt 0.375000 0.125000
vt 0.375000 0.250000
vt 0.625000 0.250000
vt 0.625000 0.125000
vt 0.125000 0.500000
vt 0.125000 0.500000
vt 0.125000 0.500000
vt 0.125000 0.500000
vt 0.375000 0.250000
vt 0.375000 0.250000
vt 0.625000 0.250000
vt 0.625000 0.250000
vt 0.187500 0.500000
vt 0.187500 0.500000
vt 0.125000 0.500000
vt 0.875000 0.500000
vt 0.875000 0.500000
vt 0.875000 0.500000
vt 0.875000 0.500000
vt 0.625000 0.250000
vt 0.625000 0.250000
vt 0.375000 0.250000
vt 0.375000 0.250000
vt 0.625000 0.250000
vt 0.375000 0.250000
vt 0.187500 0.500000
vt 0.375000 0.250000
vt 0.625000 0.250000
vt 0.125000 0.500000
vt 0.125000 0.500000
vt 0.375000 0.250000
vt 0.625000 0.250000
vt 0.875000 0.500000
vt 0.875000 0.500000
vt 0.375000 0.312500
vt 0.625000 0.312500
vt 0.812500 0.500000
vt 0.812500 0.500000
vt 0.812500 0.500000
vt 0.187500 0.625000
vt 0.187500 0.750000
vt 0.125000 0.625000
vt 0.125000 0.750000
vt 0.875000 0.500000
vt 0.187500 0.500000
vt 0.875000 0.500000
vt 0.812500 0.500000
vt 0.125000 0.500000
vt 0.375000 0.000000
vt 0.625000 0.000000
vn -0.3755 0.8576 0.3514
vn -0.8421 0.0000 0.5393
vn -0.9967 0.0000 -0.0811
vn 0.2371 -0.8690 0.4342
vn -0.9991 -0.0003 0.0420
vn 0.1148 -0.9448 0.3068
vn -0.2767 0.8484 -0.4513
vn -0.5471 0.2812 -0.7884
vn -0.5754 0.3262 -0.7500
vn 0.1662 -0.8588 0.4845
vn -0.5924 -0.0719 0.8024
vn 0.2417 -0.8884 0.3904
vn 0.1255 0.0648 0.9900
vn -0.2234 0.8934 -0.3897
vn 0.1940 0.0077 0.9810
vn -0.6466 0.0000 -0.7629
vn -0.1762 0.8122 -0.5562
vn -0.0233 0.9642 -0.2640
vn 0.0526 -0.9237 -0.3795
vn 0.3673 -0.8642 -0.3439
vn -0.2742 0.9190 -0.2833
vn -0.3003 0.8003 -0.5190
vn -0.5790 0.1295 -0.8050
vn 0.2290 -0.8485 0.4770
vn 0.1268 -0.9503 0.2844
vn -0.1239 0.0000 0.9923
vn -0.0537 0.9196 0.3892
vn -0.0114 -0.9816 0.1904
vn -0.0096 0.9798 -0.1997
vn 0.0116 0.9804 -0.1969
vn 0.0093 -0.9811 0.1931
vn -1.0000 0.0000 0.0072
vn -0.0042 1.0000 -0.0004
vn -0.0061 -0.9999 0.0121
vn 0.0030 -0.9999 0.0127
vn 0.0017 1.0000 0.0006
vn 0.3755 0.8576 0.3514
vn 0.8421 0.0000 0.5393
vn 0.9967 0.0000 -0.0811
vn -0.2371 -0.8690 0.4342
vn 0.9991 -0.0003 0.0420
vn -0.1148 -0.9448 0.3068
vn 0.2767 0.8484 -0.4513
vn 0.5471 0.2812 -0.7884
vn 0.5754 0.3262 -0.7500
vn -0.1662 -0.8588 0.4845
vn 0.5924 -0.0719 0.8024
vn -0.2417 -0.8884 0.3904
vn -0.1255 0.0648 0.9900
vn 0.2234 0.8934 -0.3897
vn -0.1940 0.0077 0.9810
vn 0.6466 0.0000 -0.7629
vn 0.1762 0.8122 -0.5562
vn 0.0233 0.9642 -0.2640
vn -0.0526 -0.9237 -0.3795
vn -0.3673 -0.8642 -0.3439
vn 0.2742 0.9190 -0.2833
vn 0.3003 0.8003 -0.5190
vn 0.5790 0.1295 -0.8050
vn -0.2290 -0.8485 0.4770
vn -0.1268 -0.9503 0.2844
vn 0.1239 0.0000 0.9923
vn 0.0537 0.9196 0.3892
vn 0.0114 -0.9816 0.1904
vn 0.0096 0.9798 -0.1997
vn -0.0116 0.9804 -0.1969
vn -0.0093 -0.9811 0.1931
vn 1.0000 0.0000 0.0072
vn 0.0042 1.0000 -0.0004
vn 0.0061 -0.9999 0.0121
vn -0.0030 -0.9999 0.0127
vn -0.0017 1.0000 0.0006
usemtl Material
s off
f 32/1/1 30/2/1 3/3/1 18/4/1
f 21/5/2 18/6/2 3/7/2 4/8/2
f 29/9/3 30/10/3 1/11/3 2/12/3
f 12/13/4 8/14/4 6/15/4 10/16/4
f 26/17/5 25/18/5 7/19/5 8/20/5
f 28/21/6 26/22/6 8/14/6 19/23/6
f 7/24/7 11/25/7 9/26/7 5/27/7
f 11/28/8 12/29/8 10/30/8 9/31/8
f 9/31/9 10/30/9 16/32/9 15/33/9
f 19/23/10 8/14/10 12/13/10 20/34/10
f 14/35/11 13/36/11 15/33/11 16/32/11
f 10/16/12 6/15/12 14/37/12 16/38/12
f 6/39/13 5/40/13 13/36/13 14/35/13
f 5/27/14 9/26/14 15/41/14 13/42/14
f 8/20/15 7/19/15 5/40/15 6/39/15
f 20/43/16 24/44/16 56/45/16 55/46/16
f 23/47/17 54/48/17 56/49/17 24/50/17
f 27/51/18 68/52/18 54/48/18 23/47/18
f 31/53/19 73/54/19 51/55/19 21/56/19
f 29/57/20 31/53/20 21/56/20 4/58/20
f 25/59/21 27/51/21 23/47/21 7/24/21
f 7/24/22 23/47/22 24/50/22 11/25/22
f 12/29/23 11/28/23 24/44/23 20/43/23
f 53/60/24 19/23/24 20/34/24 55/61/24
f 67/62/25 28/21/25 19/23/25 53/60/25
f 51/63/26 50/64/26 18/6/26 21/5/26
f 74/65/27 32/1/27 18/4/27 50/66/27
f 49/67/28 17/68/28 28/21/28 67/62/28
f 1/69/29 22/70/29 27/51/29 25/59/29
f 22/70/30 52/71/30 68/52/30 27/51/30
f 17/68/31 2/72/31 26/22/31 28/21/31
f 2/12/32 1/11/32 25/18/32 26/17/32
f 52/71/33 22/70/33 32/1/33 74/65/33
f 2/72/34 17/68/34 31/53/34 29/57/34
f 17/68/35 49/67/35 73/54/35 31/53/35
f 4/73/3 3/74/3 30/10/3 29/9/3
f 22/70/36 1/69/36 30/2/36 32/1/36
f 76/75/37 58/76/37 35/77/37 72/78/37
f 61/79/38 36/80/38 35/81/38 58/82/38
f 71/83/39 34/84/39 33/85/39 72/86/39
f 44/87/40 42/88/40 38/89/40 40/90/40
f 66/91/41 40/92/41 39/93/41 65/94/41
f 70/95/42 59/96/42 40/90/42 66/97/42
f 39/98/43 37/99/43 41/100/43 43/101/43
f 43/102/44 41/103/44 42/104/44 44/105/44
f 41/103/45 47/106/45 48/107/45 42/104/45
f 59/96/46 60/108/46 44/87/46 40/90/46
f 46/109/47 48/107/47 47/106/47 45/110/47
f 42/88/48 48/111/48 46/112/48 38/89/48
f 38/113/49 46/109/49 45/110/49 37/114/49
f 37/99/50 45/115/50 47/116/50 41/100/50
f 40/92/51 38/113/51 37/114/51 39/93/51
f 60/117/52 55/46/52 56/45/52 64/118/52
f 63/119/53 64/120/53 56/49/53 54/48/53
f 69/121/54 63/119/54 54/48/54 68/52/54
f 75/122/55 61/123/55 51/55/55 73/54/55
f 71/124/56 36/125/56 61/123/56 75/122/56
f 65/126/57 39/98/57 63/119/57 69/121/57
f 39/98/58 43/101/58 64/120/58 63/119/58
f 44/105/59 60/117/59 64/118/59 43/102/59
f 53/60/60 55/61/60 60/108/60 59/96/60
f 67/62/61 53/60/61 59/96/61 70/95/61
f 51/63/62 61/79/62 58/82/62 50/64/62
f 74/65/63 50/66/63 58/76/63 76/75/63
f 49/67/64 67/62/64 70/95/64 57/127/64
f 33/128/65 65/126/65 69/121/65 62/129/65
f 62/129/66 69/121/66 68/52/66 52/71/66
f 57/127/67 70/95/67 66/97/67 34/130/67
f 34/84/68 66/91/68 65/94/68 33/85/68
f 52/71/69 74/65/69 76/75/69 62/129/69
f 34/130/70 71/124/70 75/122/70 57/127/70
f 57/127/71 75/122/71 73/54/71 49/67/71
f 36/131/39 71/83/39 72/86/39 35/132/39
f 62/129/72 76/75/72 72/78/72 33/128/72
